<svg width="28" height="35" viewBox="0 0 28 35" fill="none" xmlns="http://www.w3.org/2000/svg">
<path d="M27.6949 9.2229C26.3015 5.06355 23.863 0 23.863 0L20.5536 1.98925L24.4726 10.5792C24.4726 10.5792 24.9951 12.7493 23.6017 13.4727C22.2083 14.196 20.989 13.2918 20.989 13.2918L16.6345 3.88809L13.8477 5.51566L14.8927 8.40911C14.8927 8.40911 14.0218 6.96239 11.9317 6.78154C9.84153 6.6007 7.92556 8.04743 7.92556 8.04743L3.04853 10.9409L8.88355 24.2327L12.3671 22.4243L10.1028 17.3608L11.3221 16.6374L15.6765 20.7967L19.3343 18.8075L14.8056 14.1056C14.8056 14.1056 16.1991 12.1164 15.6765 10.6696L18.4634 15.5523C18.4634 15.5523 21.2503 19.35 25.2564 16.2757C25.2564 16.2757 29.0884 13.3822 27.6949 9.2229ZM11.4091 13.4727L9.14482 14.7386L7.92556 12.0259L8.97064 11.3026C8.97064 11.3026 10.5383 10.0367 11.4091 11.4834C12.28 12.9301 11.4091 13.4727 11.4091 13.4727ZM15.2515 25.7391L15.9378 23.7806H1.30674L1.95469 25.6306C1.31887 25.8372 0.775354 26.2734 0.422636 26.8602C0.0699183 27.447 -0.0686627 28.1455 0.0320069 28.8293C0.132676 29.513 0.465935 30.1367 0.97139 30.5873C1.47685 31.0379 2.12105 31.2856 2.78727 31.2855C2.83429 31.2855 2.87958 31.2855 2.92661 31.2855L3.5308 32.0903L3.53951 35H13.705V32.0903L14.156 31.3669C14.2256 31.3669 14.2953 31.3778 14.3667 31.3778C15.0276 31.3766 15.6667 31.1317 16.1697 30.6866C16.6728 30.2415 17.0071 29.6253 17.113 28.9479C17.2189 28.2706 17.0895 27.5762 16.7479 26.9888C16.4063 26.4013 15.8747 25.9591 15.2481 25.7409L15.2515 25.7391Z" fill="#E3E3E3"/>
</svg>