<svg width="48" height="35" viewBox="0 0 48 35" fill="none" xmlns="http://www.w3.org/2000/svg">
<path d="M0.701613 0.715797H47.3468V34.3089H0.701613V0.715797ZM0 35H48V0H0V35Z" fill="#E3E3E3"/>
<path d="M7.83851 25.9664C7.76593 25.6702 7.59658 25.0778 6.7498 25.0778C6.24174 25.0778 5.49174 25.448 5.49174 26.8796C5.49174 27.7929 5.87883 28.6321 6.7498 28.6321C7.33045 28.6321 7.71754 28.2865 7.83851 27.6448H8.87884C8.66109 28.7555 7.95948 29.5207 6.72561 29.5207C5.39496 29.5207 4.45142 28.6074 4.45142 26.8549C4.45142 25.0778 5.44335 24.1892 6.72561 24.1892C8.20142 24.1892 8.80625 25.2259 8.87884 25.991H7.83851V25.9664Z" fill="#E3E3E3"/>
<path d="M10.1369 27.0526L11.3708 25.621H12.5563L11.2498 27.0772L12.5805 29.3727H11.4192L10.5482 27.7684L10.1369 28.188V29.3727H9.19336V25.621H10.1369V27.0526Z" fill="#E3E3E3"/>
<path d="M16.1128 27.4971C16.1128 28.8546 15.2176 29.4717 14.2499 29.4717C13.2821 29.4717 12.3628 28.8546 12.3628 27.4971C12.3628 26.1395 13.258 25.5225 14.2499 25.5225C15.2418 25.5225 16.1128 26.1395 16.1128 27.4971ZM13.3547 27.4971C13.3547 27.9907 13.4999 28.6572 14.2499 28.6572C14.9999 28.6572 15.1209 27.9907 15.1209 27.5218C15.1209 27.0528 14.9757 26.3864 14.2499 26.3864C13.5241 26.3864 13.3547 27.0034 13.3547 27.4971Z" fill="#E3E3E3"/>
<path d="M19.7417 25.621V29.3727H18.7739V26.4108H17.7336V27.5709C17.7336 29.0025 17.2981 29.4715 16.6207 29.4715C16.4513 29.4715 16.1852 29.4468 16.04 29.3974V28.6569C16.0642 28.6816 16.1852 28.6816 16.3304 28.6816C16.6207 28.6816 16.7658 28.5335 16.7658 27.3981V25.6457H19.7417V25.621Z" fill="#E3E3E3"/>
<path d="M21.1936 27.0526L22.4032 25.621H23.5887L22.3065 27.0772L23.6371 29.3727H22.4758L21.6049 27.7684L21.1936 28.188V29.3727H20.2258V25.621H21.1936V27.0526Z" fill="#E3E3E3"/>
<path d="M27.1694 27.4971C27.1694 28.8546 26.2743 29.4717 25.3065 29.4717C24.3146 29.4717 23.4194 28.8546 23.4194 27.4971C23.4194 26.1395 24.3146 25.5225 25.3065 25.5225C26.2743 25.5225 27.1694 26.1395 27.1694 27.4971ZM24.3872 27.4971C24.3872 27.9907 24.5323 28.6572 25.2823 28.6572C26.0323 28.6572 26.1533 27.9907 26.1533 27.5218C26.1533 27.0528 26.0081 26.3864 25.2823 26.3864C24.5323 26.3617 24.3872 27.0034 24.3872 27.4971Z" fill="#E3E3E3"/>
<path d="M27.4839 25.621H29.1532C29.9758 25.621 30.5807 25.9665 30.5807 26.5836C30.5807 27.0279 30.2903 27.2994 29.9032 27.3981C30.2903 27.4969 30.7016 27.7437 30.7016 28.3361C30.7016 29.0272 30.1936 29.3727 29.3468 29.3727H27.5081V25.621H27.4839ZM28.4274 27.1513H29.0565C29.371 27.1513 29.6129 27.0279 29.6129 26.7317C29.6129 26.4355 29.3952 26.3121 29.0807 26.3121H28.4516V27.1513H28.4274ZM28.4274 28.7063H29.129C29.492 28.7063 29.7097 28.5829 29.7097 28.2127C29.7097 27.8918 29.4678 27.7437 29.129 27.7437H28.4274V28.7063Z" fill="#E3E3E3"/>
<path d="M34.5242 27.4971C34.5242 28.8546 33.629 29.4717 32.6613 29.4717C31.6693 29.4717 30.7742 28.8546 30.7742 27.4971C30.7742 26.1395 31.6693 25.5225 32.6613 25.5225C33.629 25.5225 34.5242 26.1395 34.5242 27.4971ZM31.7661 27.4971C31.7661 27.9907 31.9113 28.6572 32.6613 28.6572C33.4113 28.6572 33.5322 27.9907 33.5322 27.5218C33.5322 27.0528 33.3871 26.3864 32.6613 26.3864C31.9113 26.3617 31.7661 27.0034 31.7661 27.4971Z" fill="#E3E3E3"/>
<path d="M11.4674 23.3256C12.29 23.3256 14.3223 23.1775 15.8223 22.0421V22.906H18.8706V19.1543L20.1529 17.7967L22.9352 22.906H26.5884L22.3787 15.6L26.4916 11.009H22.7416L18.8948 15.5259V6.86229H15.8465V8.24452C14.9029 7.23253 13.4029 6.44269 11.0561 6.44269C5.97549 6.44269 5.00774 9.60207 5.00774 11.3792C5.00774 13.8228 6.29 15.1557 8.51581 15.7234L11.6852 16.4885C13.3545 16.9081 14.54 17.229 14.54 18.4878C14.54 20.1662 12.7981 20.5612 11.2497 20.5612C8.39484 20.5612 7.91097 18.8581 7.91097 17.9448H4.76581C4.76581 19.9441 5.75774 23.3256 11.4674 23.3256ZM13.5481 13.7488L9.72549 12.7861C9.07226 12.638 8.05613 12.3665 8.05613 11.1077C8.05613 9.67612 9.55613 9.18246 10.8142 9.18246C13.669 9.18246 13.9352 10.8856 14.0077 11.626H15.8223V14.6126C15.169 14.2177 14.3706 13.9709 13.5481 13.7488Z" fill="#E3E3E3"/>
</svg>